<svg width="14" height="10" viewBox="0 0 14 10" fill="none" xmlns="http://www.w3.org/2000/svg">
    <path opacity="0.6"
        d="M0.445491 10H5.34633L5.56009 7.15135L7.76809 7.15125L7.98185 9.9999H12.8827C13.0326 9.99942 13.1725 9.92317 13.2563 9.79626C13.34 9.66945 13.3566 9.50845 13.3006 9.36651L9.77885 0.47781C9.71931 0.335301 9.61979 0.214001 9.49292 0.128958C9.36596 0.0439948 9.21725 -0.000860493 9.06551 1.25047e-05H7.22898L7.36515 1.89856L5.95614 1.89866L6.09231 0.000109384L4.26261 1.25047e-05C4.10925 0.000303124 3.9595 0.0471916 3.83236 0.134772C3.7053 0.222349 3.60673 0.346647 3.54927 0.491684L0.0275194 9.38039V9.38048C-0.022809 9.52076 -0.00334177 9.67723 0.0796516 9.80026C0.162742 9.9233 0.299008 9.9977 0.44544 9.99993L0.445491 10ZM5.86923 3.04181L7.45924 3.04172L7.66207 5.73759H5.66639L5.86923 3.04181Z"
        fill="white" />
</svg>
