<svg width="13" height="12" viewBox="0 0 13 12" fill="none" xmlns="http://www.w3.org/2000/svg">
    <g opacity="0.6">
        <path
            d="M6.33333 0C4.74201 0 3.21592 0.632138 2.09072 1.75739C0.965466 2.88255 0.333328 4.40873 0.333328 6C0.333328 7.59127 0.965466 9.11741 2.09072 10.2426C3.21588 11.3679 4.74205 12 6.33333 12C7.9246 12 9.45073 11.3679 10.5759 10.2426C11.7012 9.11745 12.3333 7.59127 12.3333 6C12.3333 4.94684 12.0561 3.91214 11.5295 3.00002C11.0028 2.0879 10.2455 1.33053 9.33331 0.803823C8.42118 0.277241 7.38649 0 6.33333 0ZM6.33333 11.2499C4.94097 11.2499 3.6057 10.6968 2.62107 9.71226C1.63654 8.72764 1.08341 7.3922 1.08341 6C1.08341 4.6078 1.63652 3.27238 2.62107 2.28774C3.60568 1.30321 4.94112 0.75008 6.33333 0.75008C7.72553 0.75008 9.06095 1.30319 10.0456 2.28774C11.0301 3.27236 11.5832 4.6078 11.5832 6C11.5832 6.92159 11.3407 7.82686 10.8799 8.62498C10.4191 9.4231 9.75639 10.0858 8.95827 10.5466C8.16014 11.0074 7.25488 11.25 6.33329 11.25L6.33333 11.2499Z"
            fill="white" />
        <path
            d="M6.70833 1.42876C6.70833 1.32932 6.66882 1.2339 6.59851 1.16358C6.52819 1.09327 6.43277 1.05376 6.33333 1.05376C5.0215 1.05376 3.76342 1.57482 2.83578 2.50243C1.90815 3.43005 1.38711 4.68813 1.38711 5.99998C1.38711 7.31183 1.90817 8.56989 2.83578 9.49753C3.7634 10.4252 5.02148 10.9462 6.33333 10.9462C7.64518 10.9462 8.90324 10.4251 9.83087 9.49753C10.7585 8.56991 11.2795 7.31183 11.2795 5.99998C11.2795 5.90054 11.24 5.80511 11.1697 5.7348C11.0994 5.66449 11.004 5.62498 10.9045 5.62498H6.70843L6.70833 1.42876Z"
            fill="white" />
    </g>
</svg>
